<svg xmlns="http://www.w3.org/2000/svg" height="800" width="1200" viewBox="-97.8984 -73.19525 848.4528 439.1715"><path d="M216.188 0l-13.625 3.125c.266 2.363.436 4.693.53 6.969.106 2.29.157 5.13.157 8.562v38.532c0 1.82.033 3.334.063 4.53.032 1.221.092 2.247.187 3.063.098.803.217 1.5.344 2.094.128.614.328 1.26.594 1.938.795 2.151 2.256 3.844 4.375 5.125l.406.25.406.218.438.188.406.187.437.188.469.156.438.125.468.125.469.125.469.094.5.094.5.062.5.031.5.063h.531l.531.031c2.884 0 5.541-.485 8.031-1.438l-2.28-8.062c-.416.128-.706.219-.845.219h-.687c-1.283 0-2.179-.462-2.719-1.406a6.227 6.227 0 01-.5-1.126c-.128-.414-.217-.996-.25-1.812-.043-.806-.092-1.87-.125-3.219-.033-1.346-.031-3.13-.031-5.343V13.406c0-3.635-.061-6.414-.156-8.375-.109-1.95-.277-3.623-.531-5.031zm27.343 0l-13.625 3.125c.266 2.363.426 4.693.531 6.969.106 2.29.188 5.13.188 8.562v38.532c0 1.82.001 3.334.031 4.53.032 1.221.093 2.247.188 3.063.097.803.218 1.5.343 2.094.139.614.328 1.26.594 1.938.795 2.151 2.246 3.844 4.375 5.125l.406.25.407.218.437.188.406.187.438.188.469.156.437.125.469.125.469.125.468.094.5.094.5.062.5.031.5.063h.532l.531.031c2.884 0 5.583-.485 8.062-1.438l-2.343-8.062c-.404.128-.654.219-.781.219h-.72c-1.282 0-2.178-.462-2.718-1.406-.2-.34-.364-.735-.5-1.125-.139-.415-.217-.996-.25-1.813-.033-.805-.085-1.87-.125-3.219-.033-1.345-.031-3.13-.031-5.343V13.406c0-3.635-.061-6.413-.156-8.375-.106-1.95-.266-3.623-.532-5.03zm-57.656.313c-2.344 0-4.356.787-6 2.406-1.641 1.611-2.469 3.616-2.469 5.969 0 2.351.826 4.326 2.438 5.937 1.61 1.612 3.534 2.438 5.812 2.438h.438l.219-.032h.218l.188-.03.219-.032.218-.031.188-.032.219-.03.187-.063.188-.032.187-.062.219-.063.187-.062.188-.063.187-.093.188-.063.156-.094.188-.093.187-.094.156-.094.188-.094.187-.093.156-.125.157-.125.156-.094.188-.125.156-.156.156-.125.156-.125.156-.157.157-.156c1.61-1.61 2.406-3.586 2.406-5.937 0-2.353-.796-4.358-2.375-5.97-1.568-1.618-3.485-2.405-5.75-2.405zm6.563 21.406l-13.625 2.156v50.719h13.625zm-93.5.219c-2.617 0-5.06.348-7.313 1.062-.376.12-.728.236-1.094.375-.366.14-.737.277-1.094.438a20.455 20.455 0 00-7.312 5.5c-2.013 2.384-3.575 5.3-4.688 8.625-1.1 3.339-1.624 6.932-1.624 10.968 0 4.04.523 7.767 1.624 11.063 1.113 3.307 2.675 6.085 4.688 8.406a21.057 21.057 0 007.313 5.438c2.851 1.28 6.01 1.906 9.5 1.906.503 0 .985-.012 1.468-.031 3.384-.136 6.277-.754 8.625-1.875a20.805 20.805 0 002.844-1.656c.3-.207.619-.435.906-.657.288-.221.568-.42.844-.656a23.043 23.043 0 002.344-2.312l.406-.5.406-.47.313-.468.406-.531.344-.5.344-.531.343-.532.281-.562.344-.531.25-.532.281-.562.282-.531.187-.625.281-.532.188-.593.219-.563c1.038-3.147 1.562-6.934 1.562-11.375 0-4.237-.504-7.92-1.437-10.875-.942-2.957-2.456-5.634-4.531-8.062-4.357-5.182-10.19-7.72-17.5-7.72zm180.718 0c-2.36 0-4.655.189-6.906.656-2.26.464-4.632 1.233-7.188 2.312-1.812.741-3.313 1.418-4.53 2.032-1.21.604-2.528 1.379-3.876 2.25l5.75 9.687c2.819-1.888 5.51-3.326 8-4.344 2.493-1.006 4.83-1.562 7-1.562 2.496 0 4.116.596 4.875 1.719.76 1.101 1.156 3.126 1.156 6.03v2.095a6.24 6.24 0 00-.656-.094 9.753 9.753 0 00-.906-.031h-1.5c-8.49 0-14.805 1.399-18.969 4.25-4.175 2.862-6.312 7.344-6.312 13.437 0 5.236 1.512 9.258 4.531 12 3.01 2.746 7.483 4.157 13.375 4.157 4.394 0 7.86-.97 10.438-2.844.542-.34 1.047-.797 1.562-1.25.515-.477 1.082-.93 1.625-1.469l.125.25.156.219.125.281.125.188.156.28.188.188.219.282.125.218.219.188.187.281.219.188.187.218.219.188.25.219.219.187.281.219a18.546 18.546 0 004.313 2.625l7.218-8.25c-1.139-.879-2.067-1.662-2.719-2.438a9.339 9.339 0 01-1.5-2.468c-.325-.89-.477-1.867-.53-2.907a45.602 45.602 0 01-.157-3.656l.281-17.375v-3.531c0-1.41-.016-2.466-.125-3.313a8.811 8.811 0 00-.75-2.375c-.976-2.883-2.831-5.107-5.625-6.656-2.794-1.535-6.48-2.281-10.875-2.281zm-267.469.125L0 25.375c.403.605.704 1.329.938 2.094.233.773.424 1.639.562 2.656.138 1.006.218 2.219.281 3.594.075 1.389.125 3 .125 4.875v36h13.125v-37.5c1.495-1.337 3.036-2.334 4.625-2.969 1.59-.637 3.051-.969 4.344-.969 1.897 0 3.146.537 3.75 1.563.613 1.05.906 3.163.906 6.375v33.5H41.47V37.5c1.473-1.335 3.024-2.383 4.625-3.156.403-.196.806-.385 1.187-.531 1.145-.439 2.171-.657 3.125-.657 1.801 0 2.973.462 3.469 1.407l.031.093.063.094.03.125.032.094.063.125.03.125.032.125.031.125.031.156.032.125.03.156.032.157.031.187.031.156.032.188.03.187.032.188v.187l.031.188v.219l.031.218V38l.032.219v.219l.03.25v.75l.032.25v34.906H67.75V37.875c0-3.497-.241-6.188-.781-8.062-.531-1.888-1.559-3.387-3.032-4.532-1.144-1.017-2.627-1.813-4.437-2.375-1.812-.572-3.737-.843-5.75-.843-1.415 0-2.753.116-4.031.375a16.364 16.364 0 00-3.625 1.188c-2.29 1.046-4.617 2.758-6.969 5.187-.34-.543-.66-1.013-1-1.407a15.98 15.98 0 00-1.031-1.125c-2.757-2.818-6.23-4.218-10.469-4.218-4.843 0-9.054 1.753-12.625 5.25-.265-1.346-.517-2.394-.75-3.094-.233-.708-.596-1.424-1.063-2.156zm118.282 1.093v9.532h22.281l-24.313 33.625v8.281H166.5l3.219-9.5H146l22.813-32.75v-9.188zm-31.344 8.875h.219l.281.063h.656l.219.062h.188l.218.094.188.063h.219l.187.062.219.063.187.062.219.063.125.093.219.063.187.125.156.062.188.157.125.062.219.125.125.063.219.156.124.125.126.125.218.156.125.125.156.125.126.156.124.188.157.156.125.125c1.812 2.34 2.719 6.939 2.719 13.75 0 6.096-.634 10.529-1.907 13.25-.954 2.067-2.405 3.357-4.344 3.875-.323.086-.65.144-1 .188a8.98 8.98 0 01-1.093.062c-1.334 0-2.684-.394-4-1.094-1.302-.7-2.239-1.725-2.844-3.125-1.131-2.807-1.719-7.12-1.719-12.937 0-2.545.114-4.78.344-6.656.234-1.864.616-3.478 1.094-4.813.528-1.611 1.416-2.848 2.656-3.781 1.24-.952 2.638-1.438 4.25-1.438zm184 20.22h.625l-.219 10.718c-2.034 2.257-4.475 3.375-7.187 3.375-1.79 0-3.205-.606-4.344-1.813-1.115-1.21-1.688-2.737-1.688-4.687v-.813l.063-.28v-.282l.063-.25V58l.062-.25v-.219l.094-.187.062-.281.063-.22.062-.187.063-.218.062-.188.094-.156.125-.188.062-.218.125-.125.094-.188.125-.156.125-.188.156-.156.063-.125.125-.125.219-.156.125-.125.125-.125.156-.063.125-.156.219-.125.187-.062c1.17-.65 2.915-1.1 5.219-1.344.46-.049.931-.093 1.437-.125a51.993 51.993 0 013.313-.094z" fill="#666"/><path d="M381.844 118c-12.1 0-21.453 3.225-28 9.688-6.548 6.463-9.813 15.6-9.813 27.437 0 2.64.119 5.398.344 8.281.235 2.884.493 5.583.813 8.063h-11.094v21.937h10.625v96.282h30.156v-96.282h21.969l7.875-21.937h-30.531v-16.813c0-4.302 1.157-7.582 3.468-9.875 2.311-2.31 5.52-3.468 9.531-3.468 1.86 0 3.563.227 5.188.687 1.616.48 4.15 1.55 7.531 3.25l9.969-19.625c-4.8-2.686-9.376-4.65-13.781-5.844-4.397-1.193-9.159-1.78-14.25-1.78zm-262.5 1.375c-5.42 0-10.03 1.83-13.844 5.531-3.805 3.711-5.688 8.286-5.688 13.688 0 5.383 1.834 9.924 5.563 13.625 3.72 3.71 8.22 5.531 13.5 5.531 5.43 0 9.999-1.82 13.719-5.531 3.72-3.701 5.594-8.242 5.594-13.625 0-5.402-1.824-9.977-5.47-13.688-3.635-3.7-8.095-5.53-13.374-5.53zM2 128.625v161.063h32.531v-71.282h41.125v-26.718H34.531v-36.344h51.157l3.687-26.719zm544.563 39.094l-32.188 9L547.25 226.5l-43.781 63.188h39.875l9.937-16.438c3.09-5.091 5.715-9.813 7.875-14.125a796.115 796.115 0 003.938-8.562c.14.46.617 1.39 1.406 2.781.911 1.55 1.87 3.243 2.875 5.094.996 1.85 1.995 3.652 2.906 5.437.93 1.776 1.593 3.12 2.063 4.031l12.531 21.782h39.344l-42.594-63.75 35.188-54.469h-36.594c-.47.77-1.273 2.168-2.438 4.187a69.925 69.925 0 00-3.093 6c-3.1 6.492-5.538 11.752-7.313 15.782-1.775 4.002-2.815 6.476-3.125 7.406-.46-1.08-1.055-2.388-1.75-3.844-.686-1.465-1.317-2.822-1.938-4.062-1.09-2.311-2.129-4.4-3.125-6.344-1.005-1.935-2.125-3.996-3.28-6.156a130.886 130.886 0 00-4.032-7.063c-1.531-2.555-3.383-5.767-5.563-9.656zm-412.157.656l-31.187 4.875v116.438h31.187zm47.563 0l-27.906 7.438c1.24 3.4 2.28 8.022 3.125 13.875.836 5.87 1.28 12.8 1.28 20.812v79.188h31.188v-83.782c5.712-6.641 12.049-9.968 19-9.968 3.081 0 6.091.772 9.031 2.312l8.594-27.312c-2.48-1.09-4.481-1.784-5.937-2.094-1.466-.31-3.355-.469-5.656-.469-5.862 0-11.15 1.712-15.782 5.094-4.631 3.41-8.63 7.332-12.031 11.812-.47-6.481-2.107-12.124-4.906-16.906zm93.187 0c-7.881 0-14.831 1.326-20.844 3.938-6.03 2.63-11.496 6.67-16.437 12.062-5.251 5.862-9.055 12.495-11.375 19.906-2.31 7.403-3.469 16.463-3.469 27.125 0 9.272 1.307 17.688 3.938 25.25 2.62 7.572 6.374 14.027 11.25 19.344 4.866 5.327 10.727 9.457 17.594 12.406 6.866 2.922 14.648 4.375 23.28 4.375 16.205 0 31.105-5.515 44.688-16.562l-12.062-18.563c-9.573 7.891-19.601 11.844-30.094 11.844-8.022 0-14.188-2.409-18.5-7.219-4.33-4.79-6.5-11.697-6.5-20.687v-.875h68.563v-7.281c0-12.645-1.298-23.118-3.844-31.469-2.546-8.342-6.514-15.342-11.906-20.969-3.87-4.049-8.832-7.155-14.844-9.344-6.04-2.17-12.486-3.28-19.438-3.28zm182.563.344c-7.994 0-15.275 1.466-21.813 4.406-6.557 2.922-12.128 7.14-16.75 12.625-4.622 5.477-8.213 12.01-10.75 19.656-2.536 7.647-3.781 16.104-3.781 25.375 0 9.263 1.245 17.666 3.781 25.22 2.537 7.552 6.128 13.985 10.75 19.312 4.622 5.326 10.193 9.475 16.75 12.406 6.538 2.93 13.819 4.375 21.813 4.375 9.243 0 16.922-1.444 23.094-4.375a49.2 49.2 0 0015.937-12.031c5.082-5.88 8.823-12.426 11.219-19.688 2.395-7.252 3.562-15.973 3.562-26.156 0-9.742-1.067-17.99-3.219-24.781-2.15-6.792-5.643-12.948-10.406-18.5-9.995-11.874-23.4-17.844-40.187-17.844zm-182.531 22.969c6.04 0 10.587 2.266 13.687 6.812a20.116 20.116 0 012.938 7.063c.535 2.592.78 6.072.78 10.468v1.344h-35.968v-.437c0-8.173 1.625-14.43 4.875-18.75 3.26-4.34 7.807-6.5 13.688-6.5zm183.156.343c5.692 0 10.134 2.076 13.375 6.22 4.133 5.382 6.219 15.868 6.219 31.5 0 13.93-1.454 24.027-4.375 30.312-2.922 6.284-7.846 9.406-14.75 9.406-3.091 0-6.129-.79-9.125-2.406-3.007-1.597-5.182-4.019-6.563-7.25-2.612-6.435-3.906-16.295-3.906-29.625 0-5.825.277-10.885.812-15.188.536-4.274 1.339-7.937 2.438-11 1.193-3.673 3.247-6.599 6.094-8.75 2.846-2.132 6.108-3.219 9.78-3.219z" fill="#d54203"/><path d="M640.5 171.063c-1.682 0-3.253.308-4.719.937a12.121 12.121 0 00-3.843 2.594 11.936 11.936 0 00-2.594 3.906c-.658 1.494-.969 3.103-.969 4.813 0 1.71.311 3.328.969 4.812a11.936 11.936 0 002.593 3.906c1.109 1.109 2.379 1.955 3.844 2.594 1.466.62 3.037.906 4.719.906 1.635 0 3.194-.286 4.688-.906 1.484-.639 2.766-1.485 3.875-2.594a12.98 12.98 0 002.625-3.906c.648-1.484.968-3.103.968-4.812 0-1.71-.32-3.32-.968-4.813a12.98 12.98 0 00-2.625-3.906 12.05 12.05 0 00-3.875-2.594 11.934 11.934 0 00-4.688-.937zm0 2.031a9.49 9.49 0 013.781.781 9.588 9.588 0 013.125 2.156c.874.921 1.587 2.02 2.094 3.25.507 1.25.781 2.585.781 4.032 0 1.428-.274 2.76-.781 4a10.486 10.486 0 01-2.094 3.281 9.673 9.673 0 01-3.125 2.187c-1.183.555-2.438.813-3.781.813-1.362 0-2.638-.258-3.813-.813a9.747 9.747 0 01-3.093-2.187c-.893-.93-1.587-2.023-2.094-3.281-.498-1.24-.75-2.572-.75-4 0-1.447.252-2.782.75-4.032.507-1.23 1.201-2.329 2.094-3.25a9.658 9.658 0 013.093-2.156 9.54 9.54 0 013.813-.781zm-3.906 3.344v13.687h2.218v-5.906l.5.125.407.281c.366.376.746.846 1.093 1.344a20.18 20.18 0 011.22 2.031l1.218 2.125h2.688l-2-3.281c-.217-.282-.41-.574-.625-.875-.179-.282-.385-.55-.563-.813a6.315 6.315 0 00-.5-.656l-.438-.375c1.062 0 1.877-.38 2.47-1.094.61-.713.937-1.635.937-2.687 0-.517-.103-1.018-.282-1.469a3.215 3.215 0 00-.812-1.281c-.338-.348-.793-.625-1.375-.813-.535-.225-1.208-.343-1.969-.343zm2.218 1.843h1.25c1.034 0 1.743.165 2.157.532.422.338.625.88.625 1.593 0 .677-.203 1.234-.625 1.657-.216.216-.512.343-.813.437-.366.085-.817.125-1.437.125h-1.157z" fill="#666"/></svg>